<?xml version="1.0" encoding="utf-8"?>
<!-- Generator: Adobe Illustrator 19.1.1, SVG Export Plug-In . SVG Version: 6.00 Build 0)  -->
<svg version="1.1" id="Layer_1" xmlns="http://www.w3.org/2000/svg" xmlns:xlink="http://www.w3.org/1999/xlink" x="0px" y="0px"
	 viewBox="0 0 1200 1200" enable-background="new 0 0 1200 1200" xml:space="preserve">
<g>
	<path fill="#0B1153" d="M600,1150c-303.273,0-550-246.727-550-550S296.727,50,600,50s550,246.727,550,550S903.273,1150,600,1150z
		 M600,99.176C323.845,99.176,99.176,323.845,99.176,600S323.845,1100.824,600,1100.824S1100.824,876.155,1100.824,600
		S876.155,99.176,600,99.176z"/>
	<g>
		<g>
			<path fill="#028DFF" d="M600,849.904c-137.96,0-250.198-112.238-250.198-250.198c0-79.178,38.101-154.518,101.921-201.541
				c10.946-8.058,26.328-5.717,34.382,5.207c8.058,10.937,5.726,26.328-5.207,34.382c-51.298,37.794-81.919,98.334-81.919,161.952
				c0,110.842,90.18,201.022,201.022,201.022s201.017-90.18,201.017-201.022c0-59.361-26.053-115.388-71.473-153.714
				c-10.377-8.761-11.69-24.271-2.934-34.653c8.752-10.377,24.262-11.69,34.653-2.934c56.518,47.693,88.931,117.422,88.931,191.301
				C850.194,737.666,737.956,849.904,600,849.904z"/>
		</g>
		<path fill="#028DFF" d="M599.21,646.1c-13.582,0-24.588-11.006-24.588-24.588V326.444c0-13.582,11.006-24.588,24.588-24.588
			c13.582,0,24.588,11.006,24.588,24.588v295.068C623.798,635.094,612.792,646.1,599.21,646.1z"/>
	</g>
</g>
</svg>
